<svg id="Layer_5" data-name="Layer 5" xmlns="http://www.w3.org/2000/svg" viewBox="0 0 459.2 343.5"><defs><style>.cls-1{fill:#0064aa;}</style></defs><title>agile</title><circle class="cls-1" cx="184" cy="168.1" r="8"/><path class="cls-1" d="M208,160a96,96,0,1,0,96,96A96.15,96.15,0,0,0,208,160Zm-74.3,66.2,14.9,5.9a64.74,64.74,0,0,0-3.8,13.7L129,243.3a80.48,80.48,0,0,1,4.7-17.1h0ZM128.2,261l16-1a67.27,67.27,0,0,0,2.4,14l-15.4,4.5a79.14,79.14,0,0,1-3-17.5h0Zm20.2,48.3a85.83,85.83,0,0,1-10.3-14.4l14-7.8a71.59,71.59,0,0,0,8.2,11.6Zm93.9-7.6-24.1-24.1a23.64,23.64,0,0,1-10.3,2.4,23.93,23.93,0,0,1-8-46.5V176h16v57.5a23.92,23.92,0,0,1,16,22.5,23.64,23.64,0,0,1-2.4,10.3l24.1,24.1Z" transform="translate(-24 -87.9)"/><path class="cls-1" d="M483.2,384L424,336.6V368H208a112.4,112.4,0,1,1,57.4-16h49.8A144.35,144.35,0,0,0,349,285.4l1-4.9,26-6.7V238.2l-26-6.6-1-4.9A140.86,140.86,0,0,0,328.3,177l-2.8-4.2,13.8-23.1-25.1-25.1-23.1,13.8-4.2-2.8a142.73,142.73,0,0,0-49.7-20.7l-4.9-1-6.6-26H190.2l-6.6,26-4.9,1A140.86,140.86,0,0,0,129,135.6l-4.2,2.8-23.1-13.8L76.6,149.7l13.8,23.1L87.6,177a142.73,142.73,0,0,0-20.7,49.7l-1,4.9-26,6.6v35.6l26,6.6,1,4.9C80.7,351.8,140,400,208,400H424v31.4Z" transform="translate(-24 -87.9)"/><path class="cls-1" d="M24,368v32H138.8a162.54,162.54,0,0,1-44.7-32H24Z" transform="translate(-24 -87.9)"/></svg>