<svg id="Слой_1" data-name="Слой 1" xmlns="http://www.w3.org/2000/svg" viewBox="0 0 503.2 512"><defs><style>.cls-1{fill:#f6901e;}</style></defs><title>database</title><g id="Page-1"><g id="_027---Server-Files" data-name="027---Server-Files"><ellipse id="Oval" class="cls-1" cx="97.1" cy="145.7" rx="97.1" ry="30.9"/><path id="Shape" class="cls-1" d="M4.4,315.9V362c0,9,34.3,26.5,97.1,26.5S198.6,371,198.6,362V315.9c-21.4,12.9-59.4,19.6-97.1,19.6S25.8,328.8,4.4,315.9Zm26.5,46a8.8,8.8,0,1,1,8.8-8.8A8.81,8.81,0,0,1,30.9,361.9Z" transform="translate(-4.4)"/><path id="Shape-2" data-name="Shape" class="cls-1" d="M4.4,172.3v48.4c0,9,34.3,26.5,97.1,26.5s97.1-17.5,97.1-26.5V172.3c-21.7,14.3-60.1,21.9-97.1,21.9S26.1,186.6,4.4,172.3Zm26.5,48.4a8.8,8.8,0,1,1,8.8-8.8A8.81,8.81,0,0,1,30.9,220.7Z" transform="translate(-4.4)"/><path id="Shape-3" data-name="Shape" class="cls-1" d="M4.4,245.3v46.1c0,9,34.3,26.5,97.1,26.5s97.1-17.5,97.1-26.5V245.3c-21.4,12.9-59.4,19.6-97.1,19.6S25.8,258.1,4.4,245.3Zm26.5,46a8.8,8.8,0,1,1,8.8-8.8A8.81,8.81,0,0,1,30.9,291.3Z" transform="translate(-4.4)"/><path id="Shape-4" data-name="Shape" class="cls-1" d="M331,141.2H489.9a17.8,17.8,0,0,0,17.7-17.7V53a17.67,17.67,0,0,0-17.7-17.7H419.3a17.67,17.67,0,0,1-17.7-17.7A17.5,17.5,0,0,0,384,0H331a17.8,17.8,0,0,0-17.7,17.7V79.5H278A26.55,26.55,0,0,0,251.5,106V247.2H225a8.8,8.8,0,1,0,0,17.6h26.5V406A26.55,26.55,0,0,0,278,432.5h35.3v61.8A17.8,17.8,0,0,0,331,512H489.9a17.8,17.8,0,0,0,17.7-17.7V423.7A17.67,17.67,0,0,0,489.9,406H419.3a17.67,17.67,0,0,1-17.7-17.7,17.67,17.67,0,0,0-17.7-17.7h-53a17.8,17.8,0,0,0-17.7,17.7v26.5H277.9a8.81,8.81,0,0,1-8.8-8.8V264.8h44.1V309a17.8,17.8,0,0,0,17.7,17.7H489.8A17.8,17.8,0,0,0,507.5,309V238.4a17.67,17.67,0,0,0-17.7-17.7H419.2A17.67,17.67,0,0,1,401.5,203a17.67,17.67,0,0,0-17.7-17.7h-53A17.8,17.8,0,0,0,313.1,203v44.1H269V105.9a8.81,8.81,0,0,1,8.8-8.8h35.3v26.5A18.08,18.08,0,0,0,331,141.2Zm17.7-79.4a8.8,8.8,0,1,1-8.8,8.8A8.81,8.81,0,0,1,348.7,61.8Zm0,35.3a8.8,8.8,0,1,1-8.8,8.8A8.81,8.81,0,0,1,348.7,97.1Zm0,335.5a8.8,8.8,0,1,1-8.8,8.8A8.81,8.81,0,0,1,348.7,432.6Zm0,35.3a8.8,8.8,0,1,1-8.8,8.8A8.81,8.81,0,0,1,348.7,467.9Zm0-220.7a8.8,8.8,0,1,1-8.8,8.8A8.81,8.81,0,0,1,348.7,247.2Zm0,35.3a8.8,8.8,0,1,1-8.8,8.8A8.81,8.81,0,0,1,348.7,282.5Z" transform="translate(-4.4)"/></g></g></svg>