<svg id="Capa_1" data-name="Capa 1" xmlns="http://www.w3.org/2000/svg" viewBox="0 0 512 512"><defs><style>.cls-1{fill:#0064aa;}</style></defs><title>servers</title><path class="cls-1" d="M404.5,345.4a10.35,10.35,0,0,0,0-8.1,10.14,10.14,0,0,0-2.3-3.5l-32-32a10.68,10.68,0,0,0-15.1,15.1l13.8,13.8H352A74.65,74.65,0,1,0,352,480a10.7,10.7,0,0,0,0-21.4A53.3,53.3,0,1,1,352,352h16.9l-13.8,13.8a10.65,10.65,0,0,0,7.5,18.2,10.75,10.75,0,0,0,7.6-3.1l32-32A10.14,10.14,0,0,0,404.5,345.4Z"/><path class="cls-1" d="M458.7,149.3A53.35,53.35,0,0,0,512,96V53.3A53.35,53.35,0,0,0,458.7,0H53.3A53.35,53.35,0,0,0,0,53.3V96a53.35,53.35,0,0,0,53.3,53.3H192v21.3H53.3A53.5,53.5,0,0,0,0,224v42.7A53.35,53.35,0,0,0,53.3,320H192v21.3H181.3A10.71,10.71,0,0,0,170.6,352v10.7H160a10.71,10.71,0,0,0-10.7,10.7V384h-96a10.7,10.7,0,0,0,0,21.4h96V416A10.71,10.71,0,0,0,160,426.7h85.3A10.71,10.71,0,0,0,256,416V373.3a10.71,10.71,0,0,0-10.7-10.7H234.6V352a10.71,10.71,0,0,0-10.7-10.7H213.2V320H307a9.88,9.88,0,0,0,4.5-1,98.72,98.72,0,0,1,12.1-4.9,10.68,10.68,0,0,0,7.4-8.9,31.66,31.66,0,0,1,8.9-18.6c12.1-12.1,33.2-12.1,45.2,0l24.6,24.6a10.63,10.63,0,0,0,12.5,1.9,31.28,31.28,0,0,1,14.9-3.9,95.6,95.6,0,0,1,34.2,6.6,10.55,10.55,0,0,0,8-.1,53.13,53.13,0,0,0,32.5-49.1V224a53.35,53.35,0,0,0-53.3-53.3H213.3V149.4l245.4-.1h0Zm-32-96a10.65,10.65,0,1,1,21.3,0V96a10.7,10.7,0,0,1-21.4,0V53.3h0.1Zm-42.7,0a10.7,10.7,0,0,1,21.4,0V96A10.7,10.7,0,0,1,384,96V53.3Zm-42.7,0a10.7,10.7,0,0,1,21.4,0V96a10.7,10.7,0,0,1-21.4,0V53.3Zm-42.6,0a10.65,10.65,0,1,1,21.3,0V96a10.7,10.7,0,0,1-21.4,0V53.3h0.1Zm-224,53.4a32,32,0,1,1,32-32A32.09,32.09,0,0,1,74.7,106.7Zm0,170.6a32,32,0,1,1,32-32A32.09,32.09,0,0,1,74.7,277.3Zm352-53.3a10.65,10.65,0,1,1,21.3,0v42.7a10.7,10.7,0,0,1-21.4,0V224h0.1ZM384,224a10.7,10.7,0,0,1,21.4,0v42.7a10.7,10.7,0,0,1-21.4,0V224Zm-42.7,0a10.7,10.7,0,0,1,21.4,0v42.7a10.7,10.7,0,1,1-21.4,0V224Zm-42.6,0a10.65,10.65,0,1,1,21.3,0v42.7a10.7,10.7,0,0,1-21.4,0l0.1-42.7h0Z"/><path class="cls-1" d="M437.3,330.7a10.7,10.7,0,1,0,0,21.4,53.3,53.3,0,0,1,0,106.6H420.4l13.8-13.8a10.68,10.68,0,0,0-15.1-15.1l-32,32a10.14,10.14,0,0,0-2.3,3.5,10.35,10.35,0,0,0,0,8.1,10.14,10.14,0,0,0,2.3,3.5l32,32a10.71,10.71,0,0,0,15.2-15.1L420.4,480h16.9A74.65,74.65,0,1,0,437.3,330.7Z"/></svg>