<svg id="Capa_1" data-name="Capa 1" xmlns="http://www.w3.org/2000/svg" viewBox="0 0 512 511.9"><defs><style>.cls-1{fill:#ea1f26;}</style></defs><title>servers (1)</title><path class="cls-1" d="M458.7,149.3A53.35,53.35,0,0,0,512,96V53.3A53.35,53.35,0,0,0,458.7,0H53.3A53.35,53.35,0,0,0,0,53.3V96a53.35,53.35,0,0,0,53.3,53.3H192v21.3H53.3A53.5,53.5,0,0,0,0,224v42.7A53.35,53.35,0,0,0,53.3,320H192v21.3H181.3A10.71,10.71,0,0,0,170.6,352v10.7H160a10.71,10.71,0,0,0-10.7,10.7V384h-96a10.7,10.7,0,0,0,0,21.4h96V416A10.71,10.71,0,0,0,160,426.7h50.2a10.69,10.69,0,0,0,9.6-15.3,63.12,63.12,0,0,1-6.4-27.4,64.23,64.23,0,0,1,6.4-27.4,10.78,10.78,0,0,0-.6-10.3,10.26,10.26,0,0,0-5.8-4.2V320H320.6a11.25,11.25,0,0,0,4.8-1.1l54.8-27.4a10.6,10.6,0,0,0,5.6-7.1,74,74,0,0,1,2.9-9.1,10.4,10.4,0,0,1-4.7-8.6V224a10.7,10.7,0,0,1,21.4,0v27.2a63.72,63.72,0,0,1,21.3-12.9V224a10.65,10.65,0,1,1,21.3,0v10.7a63.4,63.4,0,0,1,45.7,19.4,10.7,10.7,0,0,0,18.3-7.5V224a53.35,53.35,0,0,0-53.3-53.3H213.3V149.4l245.4-.1h0Zm-32-96a10.65,10.65,0,1,1,21.3,0V96a10.7,10.7,0,0,1-21.4,0V53.3h0.1Zm-42.7,0a10.7,10.7,0,0,1,21.4,0V96A10.7,10.7,0,0,1,384,96V53.3Zm-42.7,0a10.7,10.7,0,0,1,21.4,0V96a10.7,10.7,0,0,1-21.4,0V53.3Zm-42.6,0a10.65,10.65,0,1,1,21.3,0V96a10.7,10.7,0,0,1-21.4,0V53.3h0.1Zm-224,53.4a32,32,0,1,1,32-32A32.09,32.09,0,0,1,74.7,106.7Zm0,170.6a32,32,0,1,1,32-32A32.09,32.09,0,0,1,74.7,277.3ZM341.3,224a10.7,10.7,0,0,1,21.4,0v42.7a10.7,10.7,0,1,1-21.4,0V224Zm-42.6,0a10.65,10.65,0,1,1,21.3,0v42.7a10.7,10.7,0,0,1-21.4,0l0.1-42.7h0Z"/><path class="cls-1" d="M448,341.3a42.7,42.7,0,1,0-42.7-42.7c0,1.3.3,2.6,0.4,3.9l-99.9,49.9a42.2,42.2,0,0,0-28.5-11.2,42.7,42.7,0,0,0,0,85.4,42.2,42.2,0,0,0,28.5-11.2l99.9,49.9c-0.1,1.3-.4,2.6-0.4,3.9a42.87,42.87,0,1,0,7.6-24.2l-95.3-47.6a40.8,40.8,0,0,0,2.4-13.5,43,43,0,0,0-2.4-13.5l95.3-47.6A42.43,42.43,0,0,0,448,341.3Z"/></svg>