<svg id="Capa_1" data-name="Capa 1" xmlns="http://www.w3.org/2000/svg" viewBox="0 0 357.52 420.69">
    <defs>
        <style>
        .cls-1 {
            fill: #0064aa;
        }
        </style>
    </defs>
    <title>shield</title>
    <path class="cls-1" d="M218.22,61.36v133H335.1V83.84C297.18,67.44,239.1,62.64,218.22,61.36Z" transform="translate(-31.58 0)" />
    <path class="cls-1" d="M85.34,83.84V194.32H202.22v-133C181.42,62.56,123.34,67.36,85.34,83.84Z" transform="translate(-31.58 0)" />
    <path class="cls-1" d="M85.34,210.32v2.16c0,3.52,2.8,86.88,116.88,142.56V210.32H85.34Z" transform="translate(-31.58 0)" />
    <path class="cls-1" d="M218.22,210.32V355C332.3,299,335,216,335.1,212.4v-2.08H218.22Z" transform="translate(-31.58 0)" />
    <path class="cls-1" d="M384.54,33.84C321.58,3.6,214.94.08,210.22,0S99.1,3.6,36.14,33.84A8,8,0,0,0,31.58,41V213.2c0,5.28,3.2,130.32,176,206.8a8,8,0,0,0,6.48,0c172.16-76.56,175-201.68,175-206.88V41A8,8,0,0,0,384.54,33.84ZM351.1,212.48c0,4.24-2.56,102.56-137.6,162.48a8,8,0,0,1-6.4,0C72,315,69.5,216.72,69.5,212.56V78.72a8,8,0,0,1,4.56-7.2c49.28-24,132.56-26.4,136-26.48,6.16,0,88,3.12,136,26.48a8,8,0,0,1,4.56,7.2l0.48,123.6v10.16Z" transform="translate(-31.58 0)" />
</svg>