<svg id="Слой_1" data-name="Слой 1" xmlns="http://www.w3.org/2000/svg" viewBox="0 0 365.7 512"><defs><style>.cls-1{fill:#0064aa;}</style></defs><title>ssd</title><g id="Page-1"><g id="_022---SSD" data-name="022---SSD"><path id="Shape" class="cls-1" d="M137.1,448H374.8a27.44,27.44,0,0,0,27.4-27.4v-256a27.44,27.44,0,0,0-27.4-27.4H137.1a27.44,27.44,0,0,0-27.4,27.4v256A27.44,27.44,0,0,0,137.1,448ZM310.9,237.7a9.13,9.13,0,0,1,9.1-9.1h27.4A36.68,36.68,0,0,1,384,265.2V320a36.68,36.68,0,0,1-36.6,36.6H320a9.13,9.13,0,0,1-9.1-9.1V237.7Zm-42,69.4a18.42,18.42,0,0,0-12.9-5.4,36.63,36.63,0,0,1-25.9-62.5,37.46,37.46,0,0,1,51.7,0A36.15,36.15,0,0,1,292.5,265a9.1,9.1,0,1,1-18.2,0,17.83,17.83,0,0,0-5.4-12.9,18.67,18.67,0,0,0-25.8,0A18.26,18.26,0,0,0,256,283.3a36.6,36.6,0,1,1-36.6,36.6,9.1,9.1,0,0,1,18.2,0,18.28,18.28,0,0,0,34.1,9.2,17.87,17.87,0,0,0-2.8-22h0Zm-91.4,0a18.42,18.42,0,0,0-12.9-5.4,36.63,36.63,0,0,1-25.9-62.5,37.46,37.46,0,0,1,51.7,0A36.15,36.15,0,0,1,201.1,265a9.1,9.1,0,0,1-18.2,0,17.83,17.83,0,0,0-5.4-12.9,18.67,18.67,0,0,0-25.8,0,18.26,18.26,0,0,0,12.9,31.2A36.6,36.6,0,1,1,128,320a9.1,9.1,0,0,1,18.2,0,18.3,18.3,0,1,0,31.3-12.9h0Z" transform="translate(-73.1)"/><path id="Shape-2" data-name="Shape" class="cls-1" d="M365.7,320V265.1a18.31,18.31,0,0,0-18.3-18.3H329.1v91.4h18.3A18.16,18.16,0,0,0,365.7,320Z" transform="translate(-73.1)"/><path id="Rectangle-path" class="cls-1" d="M155.4,0H256V36.6H155.4V0Z" transform="translate(-73.1)"/><path id="Shape-3" data-name="Shape" class="cls-1" d="M91.4,512H420.5a18.31,18.31,0,0,0,18.3-18.3V18.3A18.31,18.31,0,0,0,420.5,0H338.2V36.6a18.31,18.31,0,0,1-18.3,18.3H155.4a18.31,18.31,0,0,1-18.3-18.3V0H91.4A18.37,18.37,0,0,0,73.1,18.3V493.7A18.37,18.37,0,0,0,91.4,512Zm320-18.3a9.1,9.1,0,1,1,9.1-9.1A9,9,0,0,1,411.4,493.7Zm0-475.4a9.1,9.1,0,1,1-9.1,9.1A9.13,9.13,0,0,1,411.4,18.3Zm-310.8,0a9.1,9.1,0,1,1-9.1,9.1A9.13,9.13,0,0,1,100.6,18.3ZM91.4,164.6a45.75,45.75,0,0,1,45.7-45.7H374.8a45.75,45.75,0,0,1,45.7,45.7v256a45.75,45.75,0,0,1-45.7,45.7H137.1a45.75,45.75,0,0,1-45.7-45.7v-256Zm9.2,310.8a9.1,9.1,0,1,1-9.1,9.1A9,9,0,0,1,100.6,475.4Z" transform="translate(-73.1)"/><path id="Rectangle-path-2" data-name="Rectangle-path" class="cls-1" d="M274.3,0H320V36.6H274.3V0Z" transform="translate(-73.1)"/></g></g></svg>