<svg id="Слой_1" data-name="Слой 1" xmlns="http://www.w3.org/2000/svg" viewBox="0 0 445.45 408"><defs><style>.cls-1{fill:#0064aa;}</style></defs><title>support</title><g id="Support_service" data-name="Support service"><path class="cls-1" d="M96,352h48V480H96V352Z" transform="translate(-32 -72)"/><path class="cls-1" d="M475.31,367.2a16.28,16.28,0,0,0-21.81-5.86l-80.58,46.51a31.86,31.86,0,0,1-29.05,34.43q-1.33.11-2.67,0.11a32.34,32.34,0,0,1-8.34-1.1l-95.4-25.57a8,8,0,0,1,4.14-15.46L337,425.87a16,16,0,0,0,8.88-30.74l-0.6-.16L225.94,363a40.2,40.2,0,0,0-20.06-.17L160,374.25V459l17.45,8.72A40.22,40.22,0,0,0,195.33,472H315.14a40,40,0,0,0,20-5.36L469.54,389a16.06,16.06,0,0,0,5.77-21.84h0Z" transform="translate(-32 -72)"/><path class="cls-1" d="M32,368H80v96H32V368Z" transform="translate(-32 -72)"/><path class="cls-1" d="M448,232V200H420.32a8,8,0,0,1-7.62-5.55,65.8,65.8,0,0,0-4.84-11.57,8,8,0,0,1,1.36-9.5l19.62-19.62-22.6-22.61-19.62,19.62a8,8,0,0,1-9.5,1.36,64.9,64.9,0,0,0-11.57-4.84,8,8,0,0,1-5.54-7.62V112H328v27.68a8,8,0,0,1-5.54,7.62,64.9,64.9,0,0,0-11.57,4.84,8,8,0,0,1-9.5-1.36l-19.62-19.62L259.2,153.76l19.62,19.62a8,8,0,0,1,1.36,9.5,65.8,65.8,0,0,0-4.84,11.57,8,8,0,0,1-7.66,5.55H240v32h27.68a8,8,0,0,1,7.62,5.55,65.8,65.8,0,0,0,4.84,11.57,8,8,0,0,1-1.36,9.5L259.2,278.24l22.6,22.61,19.62-19.62a8,8,0,0,1,9.5-1.36,64.9,64.9,0,0,0,11.57,4.84,8,8,0,0,1,5.5,7.62V320h32V292.32a8,8,0,0,1,5.54-7.62,64.9,64.9,0,0,0,11.57-4.84,8,8,0,0,1,9.5,1.36l19.62,19.62,22.6-22.61-19.62-19.62a8,8,0,0,1-1.36-9.5,65.8,65.8,0,0,0,4.84-11.57,8,8,0,0,1,7.62-5.55H448ZM344,264a48,48,0,1,1,48-48A48,48,0,0,1,344,264Z" transform="translate(-32 -72)"/><circle class="cls-1" cx="312" cy="144" r="32"/><circle class="cls-1" cx="96" cy="64" r="16"/><path class="cls-1" d="M165.54,149.68A8,8,0,0,1,173.2,144H192V128H173.2a8,8,0,0,1-7.66-5.68,17.87,17.87,0,0,0-1.35-3.25,8,8,0,0,1,1.43-9.37l13.3-13.3L167.6,85.07,154.3,98.4a8,8,0,0,1-9.37,1.43,18.45,18.45,0,0,0-3.2-1.34A8,8,0,0,1,136,90.8V72H120V90.8a8,8,0,0,1-5.7,7.66,18.45,18.45,0,0,0-3.2,1.34,8,8,0,0,1-9.37-1.43L88.4,85.07,77.07,96.4,90.4,109.7a8,8,0,0,1,1.43,9.37,17.87,17.87,0,0,0-1.35,3.25A8,8,0,0,1,82.82,128H64v16H82.8a8,8,0,0,1,7.66,5.68,17.87,17.87,0,0,0,1.35,3.25,8,8,0,0,1-1.43,9.37l-13.3,13.3L88.4,186.93l13.3-13.33a8,8,0,0,1,9.37-1.43,18.45,18.45,0,0,0,3.2,1.34A8,8,0,0,1,120,181.2V200h16V181.2a8,8,0,0,1,5.7-7.66,18.45,18.45,0,0,0,3.2-1.34,8,8,0,0,1,9.37,1.43l13.3,13.3L178.9,175.6l-13.3-13.3a8,8,0,0,1-1.43-9.37A17.87,17.87,0,0,0,165.54,149.68ZM128,168a32,32,0,1,1,32-32A32,32,0,0,1,128,168Z" transform="translate(-32 -72)"/></g></svg>