<svg id="Capa_1" data-name="Capa 1" xmlns="http://www.w3.org/2000/svg" viewBox="0 0 511.81 511.9"><defs><style>.cls-1{fill:#fff;}</style></defs><title>user</title><path class="cls-1" d="M256,181a60,60,0,1,0,60,60A60,60,0,0,0,256,181Z"/><path class="cls-1" d="M499.5,211.2l-39.8-6.5a206.43,206.43,0,0,0-23.4-56.4l22.9-32.1a14.9,14.9,0,0,0-1.6-19.3L415.2,54.5a14.91,14.91,0,0,0-19.3-1.6L363.8,75.8a206.43,206.43,0,0,0-56.4-23.4l-6.5-39.8A15.2,15.2,0,0,0,286,0H226a15,15,0,0,0-14.8,12.5l-6.5,39.8a206.43,206.43,0,0,0-56.4,23.4L116.2,52.8a14.89,14.89,0,0,0-19.3,1.6L54.5,96.9a14.91,14.91,0,0,0-1.6,19.3l22.9,32.1a206.43,206.43,0,0,0-23.4,56.4l-39.8,6.5A15,15,0,0,0,0,226v60a15,15,0,0,0,12.5,14.8l39.8,6.5a206.43,206.43,0,0,0,23.4,56.4L52.8,395.8a14.9,14.9,0,0,0,1.6,19.3l42.4,42.4a15,15,0,0,0,19.3,1.6l32.1-22.9a206.43,206.43,0,0,0,56.4,23.4l6.5,39.8a15,15,0,0,0,14.8,12.5h60a15,15,0,0,0,14.8-12.5l6.5-39.8a206.43,206.43,0,0,0,56.4-23.4l32.1,22.9a15,15,0,0,0,19.3-1.6l42.4-42.4a14.91,14.91,0,0,0,1.6-19.3l-22.9-32.1a206.43,206.43,0,0,0,23.4-56.4l39.8-6.5A15,15,0,0,0,511.8,286V226A14.67,14.67,0,0,0,499.5,211.2ZM256,421c-91,0-165-74-165-165S165,91,256,91s165,74,165,165S347,421,256,421Z"/><path class="cls-1" d="M325.3,297.7C308.8,317.9,284,331,256,331s-52.8-13.1-69.3-33.3A105.86,105.86,0,0,0,156,345.9c24.7,27.5,60.2,45.1,99.9,45.1s75.2-17.6,99.9-45.1A104.38,104.38,0,0,0,325.3,297.7Z"/></svg>